<?xml version="1.0" encoding="utf-8"?>
<!-- Generator: Adobe Illustrator 17.0.0, SVG Export Plug-In . SVG Version: 6.00 Build 0)  -->
<!DOCTYPE svg PUBLIC "-//W3C//DTD SVG 1.1//EN" "http://www.w3.org/Graphics/SVG/1.1/DTD/svg11.dtd">
<svg version="1.1" id="Layer_1" xmlns="http://www.w3.org/2000/svg" xmlns:xlink="http://www.w3.org/1999/xlink" x="0px" y="0px"
	 width="1452px" height="471px" viewBox="0 0 1452 471" enable-background="new 0 0 1452 471" xml:space="preserve">
<rect x="259.334" y="351.695" transform="matrix(-0.8803 -0.4743 0.4743 -0.8803 362.9874 854.9537)" fill="#B257A1" width="59.994" height="59.994"/>
<rect x="342.747" y="372.592" transform="matrix(-0.8803 -0.4743 0.4743 -0.8803 480.5386 884.6077)" fill="#B257A1" width="18.2" height="18.2"/>
<rect x="369.117" y="402.645" transform="matrix(-0.8803 -0.4743 0.4743 -0.8803 509.4694 942.9117)" fill="#B257A1" width="9.1" height="9.1"/>
<rect x="604.536" y="379.042" transform="matrix(0.8699 0.4932 -0.4932 0.8699 273.7516 -253.6074)" fill="#B257A1" width="26.154" height="26.154"/>
<rect x="527.615" y="243.915" transform="matrix(0.9124 -0.4094 0.4094 0.9124 -57.8227 243.8553)" fill="#B257A1" width="26.154" height="26.154"/>
<rect x="496.4" y="79.524" transform="matrix(0.8276 -0.5613 0.5613 0.8276 32.1379 308.9889)" fill="#B257A1" width="45.31" height="45.31"/>
<rect x="82.692" y="355.538" fill="#B257A1" width="26.154" height="26.154"/>
<rect x="139.615" y="329.385" transform="matrix(0.7637 0.6456 -0.6456 0.7637 257.1864 -17.6438)" fill="#B257A1" width="26.154" height="26.154"/>
<rect x="1336.538" y="-32.154" fill="#B257A1" width="133.846" height="133.846"/>
<rect x="1373.462" y="134" fill="#B257A1" width="30" height="30"/>
<rect x="1204.231" y="134" transform="matrix(0.9688 -0.2479 0.2479 0.9688 -2.1254 311.1228)" fill="#B257A1" width="60" height="60"/>
<rect x="938.231" y="133.645" transform="matrix(0.8382 -0.5454 0.5454 0.8382 75.6824 539.2471)" fill="#B257A1" width="16.855" height="16.855"/>
<rect x="956.692" y="77.654" fill="#B257A1" width="36.923" height="36.923"/>
<rect x="1365" y="355.538" fill="#B257A1" width="45.385" height="45.385"/>
<rect x="-25" y="-24.462" transform="matrix(0.9816 0.1912 -0.1912 0.9816 2.9244 -2.3151)" fill="#B257A1" width="76.923" height="76.923"/>
<rect x="74.834" y="46.487" transform="matrix(0.8988 -0.4385 0.4385 0.8988 -16.0987 42.7881)" fill="#B257A1" width="19.531" height="19.531"/>
<rect x="63.932" y="93.868" transform="matrix(0.6405 0.768 -0.768 0.6405 99.4496 -16.9381)" fill="#B257A1" width="7.769" height="7.769"/>
<rect x="460.449" y="76.782" transform="matrix(0.6405 0.768 -0.768 0.6405 228.8745 -327.5878)" fill="#B257A1" width="7.769" height="7.769"/>
<rect x="465.92" y="110.115" transform="matrix(0.6405 0.768 -0.768 0.6405 256.44 -319.8065)" fill="#B257A1" width="7.769" height="7.769"/>
<g>
	<path fill="#9B55A1" d="M525.769-144.462"/>
	<g>
		<path fill="#9B55A1" d="M525.769-141.962c3.224,0,3.224-5,0-5S522.545-141.962,525.769-141.962L525.769-141.962z"/>
	</g>
</g>
<rect x="167.237" y="362.477" transform="matrix(0.6405 0.768 -0.768 0.6405 342.8671 0.2923)" fill="#B257A1" width="7.769" height="7.769"/>
</svg>
