<?xml version="1.0" encoding="utf-8"?>
<!-- Generator: Adobe Illustrator 17.0.0, SVG Export Plug-In . SVG Version: 6.00 Build 0)  -->
<!DOCTYPE svg PUBLIC "-//W3C//DTD SVG 1.1//EN" "http://www.w3.org/Graphics/SVG/1.1/DTD/svg11.dtd">
<svg version="1.1" id="Layer_1" xmlns="http://www.w3.org/2000/svg" xmlns:xlink="http://www.w3.org/1999/xlink" x="0px" y="0px"
	 width="768px" height="500px" viewBox="0 0 768 500" enable-background="new 0 0 768 500" xml:space="preserve">
<rect x="-116.244" y="150.145" transform="matrix(0.7071 0.7071 -0.7071 0.7071 188.3655 78.0235)" fill="#BC5E9F" width="232.488" height="232.488"/>
<rect x="703.762" y="111.306" transform="matrix(0.7071 0.7071 -0.7071 0.7071 349.0698 -491.6426)" fill="#BC5E9F" width="128.475" height="128.475"/>
<rect x="643.765" y="246.299" transform="matrix(0.7071 0.7071 -0.7071 0.7071 426.9517 -409.6797)" fill="#BC5E9F" width="128.475" height="128.475"/>
<rect x="9.311" y="0.311" transform="matrix(0.7071 0.7071 -0.7071 0.7071 67.1847 -33.1006)" fill="#BC5E9F" width="128.475" height="128.475"/>
<rect x="87.204" y="147.029" transform="matrix(0.7071 0.7071 -0.7071 0.7071 144.5853 -24.8447)" fill="#BC5E9F" width="30.158" height="30.158"/>
<rect x="154.701" y="279.772" transform="matrix(0.7071 0.7071 -0.7071 0.7071 258.2183 -33.6924)" fill="#BC5E9F" width="30.158" height="30.158"/>
<rect x="752.921" y="364.979" transform="matrix(0.7071 0.7071 -0.7071 0.7071 493.6832 -431.7418)" fill="#BC5E9F" width="30.158" height="30.158"/>
<rect x="727.43" y="63.812" transform="matrix(0.7071 0.7071 -0.7071 0.7071 273.2599 -501.9263)" fill="#BC5E9F" width="30.158" height="30.158"/>
<rect x="664.325" y="199.171" transform="matrix(0.7071 0.7071 -0.7071 0.7071 350.4905 -417.659)" fill="#BC5E9F" width="30.158" height="30.158"/>
</svg>
