<?xml version="1.0" encoding="utf-8"?>
<!-- Generator: Adobe Illustrator 17.0.0, SVG Export Plug-In . SVG Version: 6.00 Build 0)  -->
<!DOCTYPE svg PUBLIC "-//W3C//DTD SVG 1.1//EN" "http://www.w3.org/Graphics/SVG/1.1/DTD/svg11.dtd">
<svg version="1.1" id="Layer_1" xmlns="http://www.w3.org/2000/svg" xmlns:xlink="http://www.w3.org/1999/xlink" x="0px" y="0px"
	 width="576px" height="647px" viewBox="0 0 576 647" enable-background="new 0 0 576 647" xml:space="preserve">
<rect x="-189.748" y="176.76" transform="matrix(0.7071 0.7071 -0.7071 0.7071 185.6567 137.7944)" fill="#BC5E9F" width="232.488" height="232.488"/>
<rect x="498.945" y="54.173" transform="matrix(0.7071 0.7071 -0.7071 0.7071 248.6814 -363.5482)" fill="#BC5E9F" width="128.475" height="128.475"/>
<rect x="452.128" y="321.203" transform="matrix(0.7071 0.7071 -0.7071 0.7071 423.788 -252.2328)" fill="#BC5E9F" width="128.475" height="128.475"/>
<rect x="-64.193" y="26.927" transform="matrix(0.7071 0.7071 -0.7071 0.7071 64.4759 26.6702)" fill="#BC5E9F" width="128.475" height="128.475"/>
<rect x="13.7" y="173.644" transform="matrix(0.7071 0.7071 -0.7071 0.7071 141.8766 34.9261)" fill="#BC5E9F" width="30.158" height="30.158"/>
<rect x="56.349" y="349.037" transform="matrix(0.7071 0.7071 -0.7071 0.7071 278.3899 56.1397)" fill="#BC5E9F" width="30.158" height="30.158"/>
<rect x="561.284" y="439.883" transform="matrix(0.7071 0.7071 -0.7071 0.7071 490.5195 -274.2949)" fill="#BC5E9F" width="30.158" height="30.158"/>
<rect x="522.612" y="6.68" transform="matrix(0.7071 0.7071 -0.7071 0.7071 172.8715 -373.8319)" fill="#BC5E9F" width="30.158" height="30.158"/>
<rect x="459.508" y="142.039" transform="matrix(0.7071 0.7071 -0.7071 0.7071 250.1021 -289.5646)" fill="#BC5E9F" width="30.158" height="30.158"/>
</svg>
