<?xml version="1.0" encoding="utf-8"?>
<!-- Generator: Adobe Illustrator 17.0.0, SVG Export Plug-In . SVG Version: 6.00 Build 0)  -->
<!DOCTYPE svg PUBLIC "-//W3C//DTD SVG 1.1//EN" "http://www.w3.org/Graphics/SVG/1.1/DTD/svg11.dtd">
<svg version="1.1" id="Layer_1" xmlns="http://www.w3.org/2000/svg" xmlns:xlink="http://www.w3.org/1999/xlink" x="0px" y="0px"
	 width="575px" height="647px" viewBox="0 0 575 647" enable-background="new 0 0 575 647" xml:space="preserve">
<rect x="-189.793" y="355.197" transform="matrix(0.7071 0.7071 -0.7071 0.7071 311.8173 190.0884)" fill="#BC5E9F" width="232.488" height="232.488"/>
<rect x="440.282" y="-53.827" transform="matrix(0.7071 0.7071 -0.7071 0.7071 155.1321 -353.7003)" fill="#BC5E9F" width="128.475" height="128.475"/>
<rect x="478.955" y="443.203" transform="matrix(0.7071 0.7071 -0.7071 0.7071 517.9123 -235.469)" fill="#BC5E9F" width="128.475" height="128.475"/>
<rect x="-64.238" y="-47.325" transform="matrix(0.7071 0.7071 -0.7071 0.7071 11.9591 4.9536)" fill="#BC5E9F" width="128.475" height="128.475"/>
<rect x="34.921" y="329.746" transform="matrix(0.7071 0.7071 -0.7071 0.7071 258.4726 65.6415)" fill="#BC5E9F" width="30.158" height="30.158"/>
<rect x="56.246" y="533.103" transform="matrix(0.7071 0.7071 -0.7071 0.7071 408.5134 110.1244)" fill="#BC5E9F" width="30.158" height="30.158"/>
<rect x="71.375" y="114.004" transform="matrix(0.7071 0.7071 -0.7071 0.7071 116.5974 -23.3246)" fill="#BC5E9F" width="30.158" height="30.158"/>
<rect x="332.725" y="44.483" transform="matrix(0.7071 0.7071 -0.7071 0.7071 143.9863 -228.489)" fill="#BC5E9F" width="30.158" height="30.158"/>
<rect x="517.183" y="313.293" transform="matrix(0.7071 0.7071 -0.7071 0.7071 388.0896 -280.188)" fill="#BC5E9F" width="30.158" height="30.158"/>
</svg>
